<svg xmlns="http://www.w3.org/2000/svg" xmlns:xlink="http://www.w3.org/1999/xlink" width="285.146" height="23.086" viewBox="0 0 285.146 23.086">
  <defs>
    <clipPath id="clip-path">
      <path id="Path_152" data-name="Path 152" d="M23.555,0H18.384l-2.9-11.25q-.161-.6-.549-2.483t-.447-2.527q-.088.791-.439,2.542t-.542,2.5L10.62,0H5.464L0-21.416H4.468L7.207-9.727q.718,3.237,1.04,5.61.088-.835.4-2.585t.593-2.717l3.12-12h4.292l3.12,12q.205.806.513,2.461t.469,2.842q.146-1.143.469-2.849t.586-2.761l2.725-11.689H29ZM38.13-13.506a2.834,2.834,0,0,0-2.227.9,4.169,4.169,0,0,0-.923,2.556h6.27a3.724,3.724,0,0,0-.864-2.556A2.926,2.926,0,0,0,38.13-13.506Zm.63,13.8A8.453,8.453,0,0,1,32.578-1.89a8.264,8.264,0,0,1-2.227-6.182,9.089,9.089,0,0,1,2.058-6.365A7.328,7.328,0,0,1,38.1-16.685a7.213,7.213,0,0,1,5.405,1.978,7.481,7.481,0,0,1,1.934,5.464v2.168H34.878A4.3,4.3,0,0,0,36.006-4.1a3.969,3.969,0,0,0,2.959,1.069,12.284,12.284,0,0,0,2.8-.308,14,14,0,0,0,2.754-.981V-.864a10.491,10.491,0,0,1-2.5.872A15.793,15.793,0,0,1,38.76.293ZM53.54,0H49.072V-22.793H53.54ZM64.878.293q-7.646,0-7.646-8.394,0-4.175,2.08-6.379a7.8,7.8,0,0,1,5.962-2.2,11.366,11.366,0,0,1,5.1,1.113l-1.318,3.457q-1.055-.425-1.963-.7a6.325,6.325,0,0,0-1.816-.271q-3.486,0-3.486,4.951,0,4.8,3.486,4.8a7.949,7.949,0,0,0,2.388-.344,8.621,8.621,0,0,0,2.2-1.077V-.923a7.2,7.2,0,0,1-2.19.952A12.315,12.315,0,0,1,64.878.293ZM77.212-8.218a6.874,6.874,0,0,0,.8,3.677A2.855,2.855,0,0,0,80.61-3.3a2.81,2.81,0,0,0,2.571-1.238,6.972,6.972,0,0,0,.784-3.684,6.765,6.765,0,0,0-.791-3.647,2.86,2.86,0,0,0-2.593-1.216A2.851,2.851,0,0,0,78-11.873,6.759,6.759,0,0,0,77.212-8.218Zm11.323,0a8.8,8.8,0,0,1-2.109,6.255A7.648,7.648,0,0,1,80.552.293,8.217,8.217,0,0,1,76.392-.74a6.872,6.872,0,0,1-2.769-2.966,9.968,9.968,0,0,1-.967-4.512,8.752,8.752,0,0,1,2.095-6.24,7.693,7.693,0,0,1,5.889-2.227,8.264,8.264,0,0,1,4.16,1.025,6.844,6.844,0,0,1,2.769,2.944A9.875,9.875,0,0,1,88.535-8.218ZM106.89,0h-4.468V-9.565a4.818,4.818,0,0,0-.593-2.659,2.087,2.087,0,0,0-1.868-.886,2.705,2.705,0,0,0-2.49,1.26,8.263,8.263,0,0,0-.776,4.146V0H92.227V-16.377H95.64l.6,2.095h.249a4.539,4.539,0,0,1,1.9-1.765,6.183,6.183,0,0,1,2.856-.637q3.677,0,4.98,2.4h.4a4.424,4.424,0,0,1,1.941-1.772,6.473,6.473,0,0,1,2.893-.63,5.711,5.711,0,0,1,4.211,1.428q1.428,1.428,1.428,4.578V0h-4.482V-9.565a4.818,4.818,0,0,0-.593-2.659,2.087,2.087,0,0,0-1.868-.886,2.786,2.786,0,0,0-2.454,1.172,6.649,6.649,0,0,0-.813,3.721Zm21.577-13.506a2.834,2.834,0,0,0-2.227.9,4.169,4.169,0,0,0-.923,2.556h6.27a3.724,3.724,0,0,0-.864-2.556A2.926,2.926,0,0,0,128.467-13.506Zm.63,13.8a8.453,8.453,0,0,1-6.182-2.183,8.264,8.264,0,0,1-2.227-6.182,9.089,9.089,0,0,1,2.058-6.365,7.328,7.328,0,0,1,5.691-2.249,7.213,7.213,0,0,1,5.405,1.978,7.481,7.481,0,0,1,1.934,5.464v2.168H125.215A4.3,4.3,0,0,0,126.343-4.1,3.969,3.969,0,0,0,129.3-3.032a12.284,12.284,0,0,0,2.8-.308,14,14,0,0,0,2.754-.981V-.864a10.491,10.491,0,0,1-2.5.872A15.793,15.793,0,0,1,129.1.293Zm25-3.56a9.685,9.685,0,0,0,2.813-.513V-.454a10.028,10.028,0,0,1-4.1.747,5.02,5.02,0,0,1-3.9-1.355,5.9,5.9,0,0,1-1.223-4.065v-7.9h-2.139v-1.89l2.461-1.494,1.289-3.457h2.856v3.486h4.585v3.354h-4.585v7.9a1.744,1.744,0,0,0,.535,1.406A2.11,2.11,0,0,0,154.1-3.267Zm9.683-4.951a6.874,6.874,0,0,0,.8,3.677,2.855,2.855,0,0,0,2.6,1.245,2.81,2.81,0,0,0,2.571-1.238,6.972,6.972,0,0,0,.784-3.684,6.765,6.765,0,0,0-.791-3.647,2.86,2.86,0,0,0-2.593-1.216,2.851,2.851,0,0,0-2.578,1.208A6.759,6.759,0,0,0,163.784-8.218Zm11.323,0A8.8,8.8,0,0,1,173-1.963,7.648,7.648,0,0,1,167.124.293a8.217,8.217,0,0,1-4.16-1.033A6.872,6.872,0,0,1,160.2-3.706a9.968,9.968,0,0,1-.967-4.512,8.752,8.752,0,0,1,2.095-6.24,7.693,7.693,0,0,1,5.889-2.227,8.264,8.264,0,0,1,4.16,1.025,6.844,6.844,0,0,1,2.769,2.944A9.875,9.875,0,0,1,175.107-8.218Zm29.6-2.7q0,5.288-3.01,8.1T193.008,0h-6.064V-21.416h6.724q5.244,0,8.145,2.769A10.184,10.184,0,0,1,204.712-10.913ZM200-10.8q0-6.9-6.094-6.9h-2.417V-3.75h1.948Q200-3.75,200-10.8ZM222.261,0l-1.553-5.1H212.9L211.348,0h-4.893l7.559-21.5h5.552L227.153,0Zm-2.637-8.906q-2.153-6.929-2.424-7.837t-.388-1.436q-.483,1.875-2.769,9.272Zm19.321-9.038a4.627,4.627,0,0,0-3.97,1.926,8.962,8.962,0,0,0-1.406,5.369q0,7.163,5.376,7.163a16.994,16.994,0,0,0,5.464-1.128V-.806a15.174,15.174,0,0,1-5.889,1.1q-4.673,0-7.148-2.834T228.9-10.679a13.288,13.288,0,0,1,1.216-5.852,8.787,8.787,0,0,1,3.494-3.853,10.335,10.335,0,0,1,5.339-1.34,14.411,14.411,0,0,1,6.27,1.509l-1.465,3.691a24.248,24.248,0,0,0-2.417-1A7.21,7.21,0,0,0,238.945-17.944Zm10.02-3.472h6.665q4.556,0,6.614,1.3A4.513,4.513,0,0,1,264.3-16a5.2,5.2,0,0,1-.9,3.149,3.6,3.6,0,0,1-2.4,1.479v.146a4.718,4.718,0,0,1,2.937,1.7,5.528,5.528,0,0,1,.9,3.311,5.455,5.455,0,0,1-2.117,4.57A9.155,9.155,0,0,1,256.978,0h-8.013Zm4.541,8.481h2.637a4.821,4.821,0,0,0,2.673-.571,2.131,2.131,0,0,0,.828-1.89,1.891,1.891,0,0,0-.9-1.765,5.79,5.79,0,0,0-2.849-.535h-2.388Zm0,3.6V-3.75h2.959a4.389,4.389,0,0,0,2.769-.718,2.649,2.649,0,0,0,.894-2.2q0-2.666-3.809-2.666Zm22.28-3.267,4.468-8.818h4.893l-7.1,13.081V0H273.53V-8.188l-7.1-13.228h4.922Z" transform="translate(73.75 311.661)" fill="#ff2dab"/>
    </clipPath>
  </defs>
  <g id="Mask_Group_146" data-name="Mask Group 146" transform="translate(-73.75 -288.868)" clip-path="url(#clip-path)">
    <rect id="Rectangle_743" data-name="Rectangle 743" width="346.2" height="50" rx="25" transform="translate(40.75 279.661)" fill="#fff"/>
  </g>
</svg>
